<?xml version="1.0" encoding="UTF-8" standalone="no"?>
<svg
   version="1.1"
   class="social-icon-image"
   width="14.000284"
   height="15.008887"
   viewBox="0 0 13.125266 14.070832"
   id="svg6"
   sodipodi:docname="icon-mastodon.svg"
   inkscape:version="1.2.2 (b0a8486541, 2022-12-01)"
   xmlns:inkscape="http://www.inkscape.org/namespaces/inkscape"
   xmlns:sodipodi="http://sodipodi.sourceforge.net/DTD/sodipodi-0.dtd"
   xmlns="http://www.w3.org/2000/svg"
   xmlns:svg="http://www.w3.org/2000/svg">
  <defs
     id="defs10" />
  <sodipodi:namedview
     id="namedview8"
     pagecolor="#505050"
     bordercolor="#eeeeee"
     borderopacity="1"
     inkscape:showpageshadow="0"
     inkscape:pageopacity="0"
     inkscape:pagecheckerboard="0"
     inkscape:deskcolor="#505050"
     showgrid="false"
     inkscape:zoom="34.213063"
     inkscape:cx="4.6035049"
     inkscape:cy="8.7101235"
     inkscape:window-width="1920"
     inkscape:window-height="1043"
     inkscape:window-x="1187"
     inkscape:window-y="2160"
     inkscape:window-maximized="1"
     inkscape:current-layer="g4" />
  <g
     transform="translate(-.095 .005)"
     fill="#707070"
     id="g4">
    <path
       id="path2"
       style="stroke-width:0.0606475;fill:#000000;fill-opacity:1"
       d="M 6.5421435 0.000493164 C 4.7432653 0.015203149 3.013209 0.20937069 2.00479 0.67249023 C 2.00479 0.67249023 0.0052783213 1.5678571 0.0052783213 4.6202441 C 0.0052783213 5.3192034 -0.009497438 6.1546092 0.01260254 7.0408984 C 0.085222467 10.025965 0.55958004 12.968114 3.3194873 13.698613 C 4.592026 14.035463 5.684197 14.1059 6.5641161 14.0575 C 8.1598345 13.96903 9.0561815 13.488042 9.0561815 13.488042 L 9.003081 12.328984 C 9.003081 12.328984 7.8630654 12.689557 6.5824267 12.645757 C 5.313598 12.602237 3.9751465 12.507999 3.7699267 10.9502 C 3.7505267 10.81336 3.7406298 10.668079 3.7406298 10.514409 C 3.7406298 10.514409 4.9856177 10.819306 6.5641161 10.891606 C 7.5293252 10.935886 8.4352944 10.83468 9.3546435 10.72498 C 11.117662 10.514461 12.651694 9.428731 12.844634 8.436162 L 12.846465 8.436162 C 13.150464 6.8725936 13.124785 4.6202441 13.124785 4.6202441 C 13.124785 1.5678571 11.125273 0.67249023 11.125273 0.67249023 C 10.116934 0.20937069 8.384967 0.015193149 6.5860888 0.000493164 L 6.5421435 0.000493164 z M 4.5060107 2.3845263 C 5.2553099 2.3845263 5.8227156 2.6727047 6.1979052 3.2487841 L 6.5622851 3.8603564 L 6.926665 3.2487841 C 7.3017646 2.6727047 7.8691902 2.3845263 8.6185595 2.3845263 C 9.2661288 2.3845263 9.7874925 2.6124338 10.185942 3.0565234 C 10.572192 3.500613 10.764556 4.1010909 10.764556 4.8564501 L 10.764556 8.5515185 L 9.3015429 8.5515185 L 9.3015429 4.9644824 C 9.3015429 4.2082831 8.9821517 3.8255664 8.3457323 3.8255664 C 7.642073 3.8255664 7.2910448 4.2802377 7.2910448 5.1805468 L 7.2910448 7.1434374 L 5.8353564 7.1434374 L 5.8353564 5.1805468 C 5.8353564 4.2802377 5.4824971 3.8255664 4.7788378 3.8255664 C 4.1424185 3.8255664 3.8230273 4.2082831 3.8230273 4.9644824 L 3.8230273 8.5515185 L 2.3600146 8.5515185 L 2.3600146 4.8564501 C 2.3600146 4.1010909 2.5523083 3.500613 2.9386279 3.0565234 C 3.3370075 2.6124338 3.8583713 2.3845263 4.5060107 2.3845263 z " />
  </g>
</svg>
